<svg width="163" height="67" viewBox="0 0 163 67" fill="none" xmlns="http://www.w3.org/2000/svg">
<g filter="url(#filter0_dd_4632_11245)">
<rect x="11" y="7" width="44" height="44" rx="22" fill="white"/>
<path d="M37.293 26.293L33 30.586L28.707 26.293L27.293 27.707L33 33.414L38.707 27.707L37.293 26.293Z" fill="#33354D"/>
</g>
<path d="M72.145 34V23.92H75.204C75.3114 23.92 75.4934 23.9223 75.75 23.927C76.0114 23.9317 76.261 23.9503 76.499 23.983C77.2644 24.0903 77.9037 24.375 78.417 24.837C78.9304 25.299 79.3154 25.887 79.572 26.601C79.8287 27.315 79.957 28.1013 79.957 28.96C79.957 29.8187 79.8287 30.605 79.572 31.319C79.3154 32.033 78.9304 32.621 78.417 33.083C77.9037 33.545 77.2644 33.8297 76.499 33.937C76.2657 33.965 76.016 33.9837 75.75 33.993C75.484 33.9977 75.302 34 75.204 34H72.145ZM73.209 33.013H75.204C75.3954 33.013 75.6007 33.0083 75.82 32.999C76.044 32.985 76.2354 32.9617 76.394 32.929C76.982 32.8263 77.4557 32.5883 77.815 32.215C78.179 31.8417 78.445 31.375 78.613 30.815C78.781 30.2503 78.865 29.632 78.865 28.96C78.865 28.2833 78.781 27.6627 78.613 27.098C78.445 26.5333 78.179 26.0667 77.815 25.698C77.451 25.3293 76.9774 25.0937 76.394 24.991C76.2354 24.9583 76.0417 24.9373 75.813 24.928C75.589 24.914 75.386 24.907 75.204 24.907H73.209V33.013ZM81.6913 25.005V23.85H82.7203V25.005H81.6913ZM81.6913 34V26.44H82.7203V34H81.6913ZM87.6399 34.203C86.7532 34.203 86.0229 34.0117 85.4489 33.629C84.8795 33.2463 84.5295 32.7143 84.3989 32.033L85.4489 31.858C85.5609 32.2873 85.8152 32.6303 86.2119 32.887C86.6132 33.139 87.1079 33.265 87.6959 33.265C88.2699 33.265 88.7225 33.146 89.0539 32.908C89.3852 32.6653 89.5509 32.3363 89.5509 31.921C89.5509 31.6877 89.4972 31.4987 89.3899 31.354C89.2872 31.2047 89.0749 31.067 88.7529 30.941C88.4309 30.815 87.9502 30.6657 87.3109 30.493C86.6249 30.3063 86.0882 30.1197 85.7009 29.933C85.3135 29.7463 85.0382 29.5317 84.8749 29.289C84.7115 29.0417 84.6299 28.7407 84.6299 28.386C84.6299 27.9567 84.7512 27.581 84.9939 27.259C85.2365 26.9323 85.5725 26.6803 86.0019 26.503C86.4312 26.321 86.9305 26.23 87.4999 26.23C88.0692 26.23 88.5779 26.3233 89.0259 26.51C89.4785 26.692 89.8425 26.9487 90.1179 27.28C90.3932 27.6113 90.5565 27.9963 90.6079 28.435L89.5579 28.624C89.4879 28.1807 89.2662 27.8307 88.8929 27.574C88.5242 27.3127 88.0552 27.1773 87.4859 27.168C86.9492 27.154 86.5129 27.2567 86.1769 27.476C85.8409 27.6907 85.6729 27.9777 85.6729 28.337C85.6729 28.5377 85.7335 28.7103 85.8549 28.855C85.9762 28.995 86.1955 29.128 86.5129 29.254C86.8349 29.38 87.2922 29.5177 87.8849 29.667C88.5802 29.8443 89.1262 30.031 89.5229 30.227C89.9195 30.423 90.2019 30.654 90.3699 30.92C90.5379 31.186 90.6219 31.515 90.6219 31.907C90.6219 32.621 90.3559 33.1833 89.8239 33.594C89.2965 34 88.5685 34.203 87.6399 34.203ZM95.3103 34.21C94.5497 34.21 93.9057 34.0397 93.3783 33.699C92.851 33.3583 92.4497 32.8893 92.1743 32.292C91.9037 31.69 91.7637 30.9993 91.7543 30.22C91.7637 29.4267 91.9083 28.7313 92.1883 28.134C92.4683 27.532 92.872 27.0653 93.3993 26.734C93.9267 26.398 94.566 26.23 95.3173 26.23C96.0827 26.23 96.7477 26.4167 97.3123 26.79C97.8817 27.1633 98.2713 27.6743 98.4813 28.323L97.4733 28.645C97.296 28.1923 97.0137 27.8423 96.6263 27.595C96.2437 27.343 95.805 27.217 95.3103 27.217C94.755 27.217 94.2953 27.3453 93.9313 27.602C93.5673 27.854 93.2967 28.2063 93.1193 28.659C92.942 29.1117 92.851 29.632 92.8463 30.22C92.8557 31.1253 93.0657 31.8533 93.4763 32.404C93.887 32.95 94.4983 33.223 95.3103 33.223C95.8237 33.223 96.26 33.1063 96.6193 32.873C96.9833 32.635 97.2587 32.2897 97.4453 31.837L98.4813 32.145C98.2013 32.817 97.7907 33.3303 97.2493 33.685C96.708 34.035 96.0617 34.21 95.3103 34.21ZM102.878 34.21C102.127 34.21 101.485 34.0397 100.953 33.699C100.421 33.3583 100.013 32.887 99.7282 32.285C99.4435 31.683 99.3012 30.9923 99.3012 30.213C99.3012 29.4197 99.4459 28.7243 99.7352 28.127C100.025 27.5297 100.435 27.0653 100.967 26.734C101.504 26.398 102.141 26.23 102.878 26.23C103.634 26.23 104.278 26.4003 104.81 26.741C105.347 27.077 105.755 27.546 106.035 28.148C106.32 28.7453 106.462 29.4337 106.462 30.213C106.462 31.0063 106.32 31.704 106.035 32.306C105.751 32.9033 105.34 33.37 104.803 33.706C104.267 34.042 103.625 34.21 102.878 34.21ZM102.878 33.223C103.718 33.223 104.344 32.9453 104.754 32.39C105.165 31.83 105.37 31.1043 105.37 30.213C105.37 29.2983 105.163 28.5703 104.747 28.029C104.337 27.4877 103.714 27.217 102.878 27.217C102.314 27.217 101.847 27.3453 101.478 27.602C101.114 27.854 100.841 28.2063 100.659 28.659C100.482 29.107 100.393 29.625 100.393 30.213C100.393 31.123 100.603 31.8533 101.023 32.404C101.443 32.95 102.062 33.223 102.878 33.223ZM109.777 34L107.033 26.44H108.076L110.309 32.656L112.528 26.44H113.585L110.841 34H109.777ZM117.768 34.21C117.031 34.21 116.391 34.0467 115.85 33.72C115.313 33.3933 114.896 32.9337 114.597 32.341C114.298 31.7483 114.149 31.053 114.149 30.255C114.149 29.429 114.296 28.715 114.59 28.113C114.884 27.511 115.297 27.0467 115.829 26.72C116.366 26.3933 116.998 26.23 117.726 26.23C118.473 26.23 119.11 26.4027 119.637 26.748C120.164 27.0887 120.563 27.5787 120.834 28.218C121.105 28.8573 121.228 29.6203 121.205 30.507H120.155V30.143C120.136 29.163 119.924 28.4233 119.518 27.924C119.117 27.4247 118.529 27.175 117.754 27.175C116.942 27.175 116.319 27.4387 115.885 27.966C115.456 28.4933 115.241 29.2447 115.241 30.22C115.241 31.172 115.456 31.9117 115.885 32.439C116.319 32.9617 116.933 33.223 117.726 33.223C118.267 33.223 118.739 33.0993 119.14 32.852C119.546 32.6 119.866 32.2383 120.099 31.767L121.058 32.138C120.759 32.796 120.318 33.307 119.735 33.671C119.156 34.0303 118.501 34.21 117.768 34.21ZM114.877 30.507V29.646H120.652V30.507H114.877ZM122.758 34V26.44H123.682V28.26L123.5 28.022C123.584 27.798 123.694 27.5927 123.829 27.406C123.965 27.2147 124.112 27.0583 124.27 26.937C124.466 26.7643 124.695 26.6337 124.956 26.545C125.218 26.4517 125.481 26.398 125.747 26.384C126.013 26.3653 126.256 26.384 126.475 26.44V27.406C126.2 27.336 125.899 27.3197 125.572 27.357C125.246 27.3943 124.945 27.525 124.669 27.749C124.417 27.945 124.228 28.1807 124.102 28.456C123.976 28.7267 123.892 29.016 123.85 29.324C123.808 29.6273 123.787 29.9283 123.787 30.227V34H122.758ZM139.622 34L139.629 29.037C139.629 28.4537 139.466 27.9963 139.139 27.665C138.817 27.329 138.406 27.161 137.907 27.161C137.622 27.161 137.345 27.2263 137.074 27.357C136.803 27.4877 136.579 27.6977 136.402 27.987C136.229 28.2763 136.143 28.6543 136.143 29.121L135.534 28.946C135.52 28.4047 135.625 27.931 135.849 27.525C136.078 27.119 136.39 26.804 136.787 26.58C137.188 26.3513 137.641 26.237 138.145 26.237C138.906 26.237 139.515 26.4727 139.972 26.944C140.429 27.4107 140.658 28.043 140.658 28.841L140.651 34H139.622ZM130.599 34V26.44H131.523V28.302H131.635V34H130.599ZM135.121 34L135.128 29.107C135.128 28.505 134.967 28.0313 134.645 27.686C134.328 27.336 133.908 27.161 133.385 27.161C132.862 27.161 132.44 27.3407 132.118 27.7C131.796 28.0547 131.635 28.5283 131.635 29.121L131.019 28.785C131.019 28.2997 131.133 27.8657 131.362 27.483C131.591 27.0957 131.903 26.7923 132.3 26.573C132.697 26.349 133.147 26.237 133.651 26.237C134.132 26.237 134.559 26.3397 134.932 26.545C135.31 26.7503 135.606 27.049 135.821 27.441C136.036 27.833 136.143 28.309 136.143 28.869L136.136 34H135.121ZM145.589 34.21C144.838 34.21 144.196 34.0397 143.664 33.699C143.132 33.3583 142.724 32.887 142.439 32.285C142.154 31.683 142.012 30.9923 142.012 30.213C142.012 29.4197 142.157 28.7243 142.446 28.127C142.735 27.5297 143.146 27.0653 143.678 26.734C144.215 26.398 144.852 26.23 145.589 26.23C146.345 26.23 146.989 26.4003 147.521 26.741C148.058 27.077 148.466 27.546 148.746 28.148C149.031 28.7453 149.173 29.4337 149.173 30.213C149.173 31.0063 149.031 31.704 148.746 32.306C148.461 32.9033 148.051 33.37 147.514 33.706C146.977 34.042 146.336 34.21 145.589 34.21ZM145.589 33.223C146.429 33.223 147.054 32.9453 147.465 32.39C147.876 31.83 148.081 31.1043 148.081 30.213C148.081 29.2983 147.873 28.5703 147.458 28.029C147.047 27.4877 146.424 27.217 145.589 27.217C145.024 27.217 144.558 27.3453 144.189 27.602C143.825 27.854 143.552 28.2063 143.37 28.659C143.193 29.107 143.104 29.625 143.104 30.213C143.104 31.123 143.314 31.8533 143.734 32.404C144.154 32.95 144.772 33.223 145.589 33.223ZM150.717 34V26.44H151.641V28.26L151.459 28.022C151.543 27.798 151.653 27.5927 151.788 27.406C151.924 27.2147 152.071 27.0583 152.229 26.937C152.425 26.7643 152.654 26.6337 152.915 26.545C153.177 26.4517 153.44 26.398 153.706 26.384C153.972 26.3653 154.215 26.384 154.434 26.44V27.406C154.159 27.336 153.858 27.3197 153.531 27.357C153.205 27.3943 152.904 27.525 152.628 27.749C152.376 27.945 152.187 28.1807 152.061 28.456C151.935 28.7267 151.851 29.016 151.809 29.324C151.767 29.6273 151.746 29.9283 151.746 30.227V34H150.717ZM158.825 34.21C158.087 34.21 157.448 34.0467 156.907 33.72C156.37 33.3933 155.952 32.9337 155.654 32.341C155.355 31.7483 155.206 31.053 155.206 30.255C155.206 29.429 155.353 28.715 155.647 28.113C155.941 27.511 156.354 27.0467 156.886 26.72C157.422 26.3933 158.055 26.23 158.783 26.23C159.529 26.23 160.166 26.4027 160.694 26.748C161.221 27.0887 161.62 27.5787 161.891 28.218C162.161 28.8573 162.285 29.6203 162.262 30.507H161.212V30.143C161.193 29.163 160.981 28.4233 160.575 27.924C160.173 27.4247 159.585 27.175 158.811 27.175C157.999 27.175 157.376 27.4387 156.942 27.966C156.512 28.4933 156.298 29.2447 156.298 30.22C156.298 31.172 156.512 31.9117 156.942 32.439C157.376 32.9617 157.989 33.223 158.783 33.223C159.324 33.223 159.795 33.0993 160.197 32.852C160.603 32.6 160.922 32.2383 161.156 31.767L162.115 32.138C161.816 32.796 161.375 33.307 160.792 33.671C160.213 34.0303 159.557 34.21 158.825 34.21ZM155.934 30.507V29.646H161.709V30.507H155.934Z" fill="#565973"/>
<defs>
<filter id="filter0_dd_4632_11245" x="0" y="0.4" width="66" height="66" filterUnits="userSpaceOnUse" color-interpolation-filters="sRGB">
<feFlood flood-opacity="0" result="BackgroundImageFix"/>
<feColorMatrix in="SourceAlpha" type="matrix" values="0 0 0 0 0 0 0 0 0 0 0 0 0 0 0 0 0 0 127 0" result="hardAlpha"/>
<feMorphology radius="1" operator="erode" in="SourceAlpha" result="effect1_dropShadow_4632_11245"/>
<feOffset dy="2"/>
<feGaussianBlur stdDeviation="3.2"/>
<feColorMatrix type="matrix" values="0 0 0 0 0.0745098 0 0 0 0 0.0627451 0 0 0 0 0.133333 0 0 0 0.03 0"/>
<feBlend mode="normal" in2="BackgroundImageFix" result="effect1_dropShadow_4632_11245"/>
<feColorMatrix in="SourceAlpha" type="matrix" values="0 0 0 0 0 0 0 0 0 0 0 0 0 0 0 0 0 0 127 0" result="hardAlpha"/>
<feMorphology radius="1" operator="erode" in="SourceAlpha" result="effect2_dropShadow_4632_11245"/>
<feOffset dy="4.4"/>
<feGaussianBlur stdDeviation="6"/>
<feColorMatrix type="matrix" values="0 0 0 0 0.0745098 0 0 0 0 0.0627451 0 0 0 0 0.133333 0 0 0 0.06 0"/>
<feBlend mode="normal" in2="effect1_dropShadow_4632_11245" result="effect2_dropShadow_4632_11245"/>
<feBlend mode="normal" in="SourceGraphic" in2="effect2_dropShadow_4632_11245" result="shape"/>
</filter>
</defs>
</svg>
